HIERARCHY
ROOT Hips
{
	OFFSET 0.000000 103.266502 0.000000
	CHANNELS 6 Xposition Yposition Zposition Xrotation Yrotation Zrotation 
	JOINT Spine
	{
		OFFSET -0.002400 12.777504 0.315300
		CHANNELS 3 Xrotation Yrotation Zrotation
		JOINT Spine1
		{
			OFFSET -0.002067 5.816869 0.032633
			CHANNELS 3 Xrotation Yrotation Zrotation
			JOINT Spine1_split
			{
				OFFSET -0.002067 5.816869 0.032633
				CHANNELS 3 Xrotation Yrotation Zrotation
				JOINT Spine2
				{
					OFFSET -0.002067 5.816869 0.032633
					CHANNELS 3 Xrotation Yrotation Zrotation
					JOINT Neck
					{
						OFFSET -0.003700 21.199493 -0.826900
						CHANNELS 3 Xrotation Yrotation Zrotation
						JOINT Head
						{
							OFFSET 0.000000 20.442200 4.834800
							CHANNELS 3 Xrotation Yrotation Zrotation
							JOINT HeadTop_End
							{
								OFFSET 0.000000 34.668396 4.968400
								CHANNELS 3 Xrotation Yrotation Zrotation
								End Site
								{
									OFFSET 0.000000 0.000000 0.000000
								}
							}
						}
					}
					JOINT LeftShoulder
					{
						OFFSET 3.288150 8.794197 -1.372250
						CHANNELS 3 Xrotation Yrotation Zrotation
						JOINT LeftShoulder_split
						{
							OFFSET 3.288150 8.794197 -1.372250
							CHANNELS 3 Xrotation Yrotation Zrotation
							JOINT LeftArm
							{
								OFFSET 11.953299 -2.279007 -0.146200
								CHANNELS 3 Xrotation Yrotation Zrotation
								JOINT LeftForeArm
								{
									OFFSET 18.448900 0.000000 0.000000
									CHANNELS 3 Xrotation Yrotation Zrotation
									JOINT LeftHand
									{
										OFFSET 29.527798 0.000000 0.000000
										CHANNELS 3 Xrotation Yrotation Zrotation
										JOINT LeftHandThumb1
										{
											OFFSET 10.739754 -2.369614 9.225399
											CHANNELS 3 Xrotation Yrotation Zrotation
											JOINT LeftHandThumb2
											{
												OFFSET 4.926170 -2.844131 2.844125
												CHANNELS 3 Xrotation Yrotation Zrotation
												JOINT LeftHandThumb3
												{
													OFFSET 4.614891 -2.664413 2.664409
													CHANNELS 3 Xrotation Yrotation Zrotation
													JOINT LeftHandThumb4
													{
														OFFSET 4.432465 -2.559082 2.559083
														CHANNELS 3 Xrotation Yrotation Zrotation
														End Site
														{
															OFFSET 0.000000 0.000000 0.000000
														}
													}
												}
											}
										}
										JOINT LeftHandIndex1
										{
											OFFSET 26.467674 0.187653 6.405298
											CHANNELS 3 Xrotation Yrotation Zrotation
											JOINT LeftHandIndex2
											{
												OFFSET 8.792900 0.000000 0.000000
												CHANNELS 3 Xrotation Yrotation Zrotation
												JOINT LeftHandIndex3
												{
													OFFSET 10.075203 0.000000 0.000000
													CHANNELS 3 Xrotation Yrotation Zrotation
													End Site
													{
														OFFSET 0.000000 0.000000 0.000000
													}
												}
											}
										}
										JOINT LeftHandMiddle1
										{
											OFFSET 25.764404 0.000000 0.000000
											CHANNELS 3 Xrotation Yrotation Zrotation
											JOINT LeftHandMiddle2
											{
												OFFSET 9.393974 0.000000 0.000000
												CHANNELS 3 Xrotation Yrotation Zrotation
												JOINT LeftHandMiddle3
												{
													OFFSET 10.771950 0.000000 0.000000
													CHANNELS 3 Xrotation Yrotation Zrotation
													End Site
													{
														OFFSET 0.000000 0.000000 0.000000
													}
												}
											}
										}
										JOINT LeftHandRing1
										{
											OFFSET 24.660927 0.144547 -6.225808
											CHANNELS 3 Xrotation Yrotation Zrotation
											JOINT LeftHandRing2
											{
												OFFSET 9.393799 0.000000 0.000000
												CHANNELS 3 Xrotation Yrotation Zrotation
												JOINT LeftHandRing3
												{
													OFFSET 9.928497 0.000000 0.000000
													CHANNELS 3 Xrotation Yrotation Zrotation
													End Site
													{
														OFFSET 0.000000 0.000000 0.000000
													}
												}
											}
										}
										JOINT LeftHandPinky1
										{
											OFFSET 23.655350 0.125290 -12.815412
											CHANNELS 3 Xrotation Yrotation Zrotation
											JOINT LeftHandPinky2
											{
												OFFSET 8.425102 0.000000 0.000000
												CHANNELS 3 Xrotation Yrotation Zrotation
												JOINT LeftHandPinky3
												{
													OFFSET 8.147003 0.000000 0.000000
													CHANNELS 3 Xrotation Yrotation Zrotation
													End Site
													{
														OFFSET 0.000000 0.000000 0.000000
													}
												}
											}
										}
									}
								}
							}
						}
					}
					JOINT RightShoulder
					{
						OFFSET -3.249400 8.794197 -1.372250
						CHANNELS 3 Xrotation Yrotation Zrotation
						JOINT RightShoulder_split
						{
							OFFSET -3.249400 8.794197 -1.372250
							CHANNELS 3 Xrotation Yrotation Zrotation
							JOINT RightArm
							{
								OFFSET -11.953299 -2.279007 -0.146200
								CHANNELS 3 Xrotation Yrotation Zrotation
								JOINT RightForeArm
								{
									OFFSET -18.448900 0.000000 0.000000
									CHANNELS 3 Xrotation Yrotation Zrotation
									JOINT RightHand
									{
										OFFSET -29.527802 0.000000 0.000000
										CHANNELS 3 Xrotation Yrotation Zrotation
										JOINT RightHandThumb1
										{
											OFFSET -10.739754 -2.369614 9.225399
											CHANNELS 3 Xrotation Yrotation Zrotation
											JOINT RightHandThumb2
											{
												OFFSET -4.926170 -2.844131 2.844125
												CHANNELS 3 Xrotation Yrotation Zrotation
												JOINT RightHandThumb3
												{
													OFFSET -4.614891 -2.664413 2.664409
													CHANNELS 3 Xrotation Yrotation Zrotation
													JOINT RightHandThumb4
													{
														OFFSET -4.432465 -2.559082 2.559083
														CHANNELS 3 Xrotation Yrotation Zrotation
														End Site
														{
															OFFSET 0.000000 0.000000 0.000000
														}
													}
												}
											}
										}
										JOINT RightHandIndex1
										{
											OFFSET -26.467674 0.187653 6.405298
											CHANNELS 3 Xrotation Yrotation Zrotation
											JOINT RightHandIndex2
											{
												OFFSET -8.792900 0.000000 0.000000
												CHANNELS 3 Xrotation Yrotation Zrotation
												JOINT RightHandIndex3
												{
													OFFSET -10.075203 0.000000 0.000000
													CHANNELS 3 Xrotation Yrotation Zrotation
													End Site
													{
														OFFSET 0.000000 0.000000 0.000000
													}
												}
											}
										}
										JOINT RightHandMiddle1
										{
											OFFSET -25.764404 0.000000 0.000000
											CHANNELS 3 Xrotation Yrotation Zrotation
											JOINT RightHandMiddle2
											{
												OFFSET -9.393974 0.000000 0.000000
												CHANNELS 3 Xrotation Yrotation Zrotation
												JOINT RightHandMiddle3
												{
													OFFSET -10.771950 0.000000 0.000000
													CHANNELS 3 Xrotation Yrotation Zrotation
													End Site
													{
														OFFSET 0.000000 0.000000 0.000000
													}
												}
											}
										}
										JOINT RightHandRing1
										{
											OFFSET -24.660927 0.144547 -6.225808
											CHANNELS 3 Xrotation Yrotation Zrotation
											JOINT RightHandRing2
											{
												OFFSET -9.393799 0.000000 0.000000
												CHANNELS 3 Xrotation Yrotation Zrotation
												JOINT RightHandRing3
												{
													OFFSET -9.928497 0.000000 0.000000
													CHANNELS 3 Xrotation Yrotation Zrotation
													End Site
													{
														OFFSET 0.000000 0.000000 0.000000
													}
												}
											}
										}
										JOINT RightHandPinky1
										{
											OFFSET -23.655350 0.125290 -12.815412
											CHANNELS 3 Xrotation Yrotation Zrotation
											JOINT RightHandPinky2
											{
												OFFSET -8.425102 0.000000 0.000000
												CHANNELS 3 Xrotation Yrotation Zrotation
												JOINT RightHandPinky3
												{
													OFFSET -8.147003 0.000000 0.000000
													CHANNELS 3 Xrotation Yrotation Zrotation
													End Site
													{
														OFFSET 0.000000 0.000000 0.000000
													}
												}
											}
										}
									}
								}
							}
						}
					}
				}
			}
		}
	}
	JOINT LeftUpLeg
	{
		OFFSET 11.394100 -6.187798 -0.413800
		CHANNELS 3 Xrotation Yrotation Zrotation
		JOINT LeftLeg
		{
			OFFSET 0.430247 -32.302673 3.732800
			CHANNELS 3 Xrotation Yrotation Zrotation
			JOINT LeftFoot
			{
				OFFSET -0.430247 -48.264931 -6.423300
				CHANNELS 3 Xrotation Yrotation Zrotation
				JOINT LeftToeBase
				{
					OFFSET 4.230900 -16.068199 23.438400
					CHANNELS 3 Xrotation Yrotation Zrotation
					JOINT LeftToe_End
					{
						OFFSET 4.510700 0.695400 19.974600
						CHANNELS 3 Xrotation Yrotation Zrotation
						End Site
						{
							OFFSET 0.000000 0.000000 0.000000
						}
					}
				}
			}
		}
	}
	JOINT RightUpLeg
	{
		OFFSET -11.333700 -6.187798 -0.413800
		CHANNELS 3 Xrotation Yrotation Zrotation
		JOINT RightLeg
		{
			OFFSET -0.430392 -32.302628 3.733000
			CHANNELS 3 Xrotation Yrotation Zrotation
			JOINT RightFoot
			{
				OFFSET 0.430392 -48.264973 -6.423500
				CHANNELS 3 Xrotation Yrotation Zrotation
				JOINT RightToeBase
				{
					OFFSET -4.230900 -16.068199 23.438400
					CHANNELS 3 Xrotation Yrotation Zrotation
					JOINT RightToe_End
					{
						OFFSET -4.510700 0.695400 19.974600
						CHANNELS 3 Xrotation Yrotation Zrotation
						End Site
						{
							OFFSET 0.000000 0.000000 0.000000
						}
					}
				}
			}
		}
	}
}
MOTION
Frames: 4
Frame Time: 0.016667
-3.294794 94.021553 50.759811 29.681881 6.006211 -17.720873 6.144325 12.134246 -8.389003 11.648224 11.205353 -7.545695 0.000000 0.000000 0.000000 11.698384 11.155146 -7.567850 -9.883401 -7.149095 7.463522 -30.256324 -33.917664 18.385676 0.000001 -0.000000 -0.000000 -0.266300 3.848958 2.890084 0.000000 0.000000 0.000000 28.180080 -44.869835 -18.300141 -0.000005 -24.379735 0.000009 -6.282346 38.817013 -1.221411 -3.708762 -5.344629 -9.285590 10.685384 16.536450 0.020104 2.736435 5.880170 2.697148 0.000001 0.000001 -0.000001 0.013963 0.439244 -3.642314 0.025874 0.597762 -4.959534 0.000002 -0.000000 -0.000000 0.013840 0.437325 -3.626322 0.026054 0.599678 -4.975532 -0.000001 0.000000 -0.000000 0.013963 0.439244 -3.642314 0.025872 0.597761 -4.959536 -0.000001 0.000000 -0.000000 0.254037 4.486459 -3.142208 0.013176 -3.456766 -5.468415 -0.000000 -0.000002 0.000001 4.952153 16.802293 -7.381368 0.000000 0.000000 0.000000 -6.598545 60.118205 21.651655 -0.000010 37.609118 0.000016 -29.432593 -31.794981 -16.154830 31.276471 -0.747340 -0.159459 -3.876771 -9.680801 -4.069559 -5.448487 -0.536447 -3.405166 -0.000003 0.000000 0.000001 0.578529 -2.781510 23.494942 0.464466 -2.503087 21.020969 -0.000002 0.000000 0.000001 0.578529 -2.781498 23.494937 0.464460 -2.503098 21.020988 0.000000 0.000000 -0.000002 0.578526 -2.781509 23.494942 0.464465 -2.503087 21.020968 -0.000003 -0.000002 0.000000 0.578528 -2.781512 23.494942 0.464463 -2.503088 21.020969 -0.000001 -0.000001 0.000003 -71.679352 -2.914290 13.938331 37.494675 7.749447 -6.907394 3.435401 0.409100 7.374155 -0.206872 -0.000005 -0.000005 -0.000000 -0.000000 -0.000000 -22.207969 -19.605481 -23.604055 78.236634 -5.691687 -3.345405 41.046824 1.323295 2.319001 -0.000017 -0.000010 -0.000001 0.000001 -0.000001 -0.000000 
-3.373926 93.881699 51.029167 28.825075 6.541001 -17.567380 6.152577 11.430243 -8.732078 11.676783 10.962423 -7.565068 0.000000 0.000000 0.000000 11.760152 10.875358 -7.587003 -9.995534 -7.064438 7.301292 -30.252578 -33.572992 18.432225 0.000001 0.000000 0.000000 -0.255802 3.725912 3.215404 0.000000 0.000000 0.000000 28.574279 -46.646012 -14.108365 -0.000002 -23.223225 0.000001 -8.175375 37.907400 -1.748990 -3.708763 -5.344629 -9.285588 10.685379 16.536450 0.020104 2.736436 5.880170 2.697148 -0.000002 0.000001 -0.000000 0.013962 0.439243 -3.642313 0.025873 0.597760 -4.959535 0.000000 0.000003 -0.000001 0.013844 0.437325 -3.626322 0.026051 0.599681 -4.975532 0.000000 -0.000002 0.000001 0.013963 0.439242 -3.642314 0.025873 0.597760 -4.959534 0.000002 0.000001 0.000001 0.254039 4.486456 -3.142204 0.013179 -3.456765 -5.468413 0.000001 0.000001 0.000000 4.755297 16.291739 -6.875266 0.000000 0.000000 0.000000 -6.385720 57.667137 19.002385 0.000001 35.965618 0.000023 -31.597210 -30.685397 -17.384515 31.221345 -0.795013 -0.187884 -3.869665 -9.704023 -4.071605 -5.444445 -0.547815 -3.406998 -0.000004 0.000001 -0.000000 0.577754 -2.779698 23.478784 0.463241 -2.499895 20.992744 -0.000001 -0.000000 0.000002 0.577759 -2.779696 23.478791 0.463238 -2.499887 20.992740 0.000000 0.000001 -0.000001 0.577756 -2.779696 23.478786 0.463242 -2.499895 20.992745 0.000001 -0.000002 0.000002 0.577754 -2.779700 23.478786 0.463243 -2.499896 20.992744 -0.000002 -0.000000 0.000003 -71.183753 -2.401806 13.990904 38.273006 7.029322 -6.835258 2.963061 0.412020 7.370917 -0.212796 -0.000009 -0.000001 -0.000000 0.000002 0.000000 -22.853263 -19.637878 -22.800561 76.434509 -4.598166 -3.431047 40.789832 1.001107 1.426797 0.000009 -0.000009 0.000005 -0.000003 0.000002 0.000000 
-3.437454 93.772026 51.301846 27.965786 7.067342 -17.441129 6.176877 10.698990 -9.081720 11.743717 10.656882 -7.606261 0.000000 0.000000 0.000000 11.859992 10.534740 -7.618940 -10.124077 -6.973871 7.156030 -30.258776 -33.172470 18.493004 -0.000001 -0.000001 -0.000000 -0.246496 3.605301 3.561321 0.000000 0.000000 0.000000 28.114741 -48.438882 -10.572341 -0.000002 -21.961908 0.000015 -10.198585 36.602659 -1.666805 -3.708763 -5.344629 -9.285590 10.685382 16.536445 0.020105 2.736440 5.880169 2.697149 -0.000001 -0.000000 0.000000 0.013964 0.439243 -3.642313 0.025872 0.597760 -4.959534 -0.000001 0.000001 -0.000002 0.013843 0.437320 -3.626323 0.026052 0.599680 -4.975533 -0.000001 0.000001 -0.000002 0.013964 0.439244 -3.642314 0.025872 0.597762 -4.959534 -0.000000 0.000001 0.000001 0.254039 4.486455 -3.142204 0.013178 -3.456765 -5.468413 -0.000001 -0.000001 0.000000 4.570564 15.669526 -6.602636 0.000000 0.000000 0.000000 -6.422798 55.485875 16.577499 -0.000011 34.357566 0.000032 -33.438072 -29.057428 -18.368947 31.163937 -0.844531 -0.217481 -3.862224 -9.728361 -4.073784 -5.440179 -0.559733 -3.408906 -0.000004 0.000000 -0.000001 0.576946 -2.777840 23.461973 0.461895 -2.496419 20.962124 0.000001 0.000001 -0.000001 0.576944 -2.777837 23.461980 0.461894 -2.496410 20.962134 -0.000000 0.000002 -0.000001 0.576946 -2.777841 23.461973 0.461897 -2.496420 20.962127 -0.000001 -0.000000 0.000000 0.576947 -2.777842 23.461973 0.461892 -2.496420 20.962122 -0.000001 -0.000001 0.000001 -70.652474 -1.780294 14.065880 38.948201 6.201560 -6.689448 2.516103 0.415059 7.394195 -0.218904 -0.000017 -0.000001 -0.000000 -0.000002 -0.000000 -23.464521 -19.567718 -21.962745 74.588275 -3.728394 -3.666000 40.476739 0.861111 1.097678 -0.000007 0.000009 0.000002 0.000002 0.000002 -0.000001 
-3.465378 93.687363 51.579754 27.093644 7.592005 -17.324181 6.219429 9.925322 -9.432636 11.857629 10.258349 -7.663909 0.000000 0.000000 0.000000 12.006345 10.104663 -7.655107 -10.259049 -6.869445 7.028377 -30.230718 -32.681540 18.611092 0.000001 -0.000000 -0.000000 -0.235976 3.479655 3.929601 0.000000 0.000000 0.000000 26.629934 -50.227661 -7.790000 0.000010 -20.582008 0.000007 -12.116073 35.063838 -1.214180 -3.708763 -5.344627 -9.285590 10.685379 16.536446 0.020105 2.736438 5.880169 2.697146 -0.000002 0.000000 -0.000003 0.013961 0.439246 -3.642317 0.025875 0.597762 -4.959531 -0.000001 -0.000003 0.000001 0.013843 0.437325 -3.626323 0.026052 0.599680 -4.975534 0.000001 -0.000003 0.000001 0.013962 0.439246 -3.642316 0.025874 0.597763 -4.959531 -0.000000 -0.000005 0.000002 0.254038 4.486458 -3.142206 0.013177 -3.456765 -5.468414 -0.000001 -0.000000 -0.000000 4.407073 14.991005 -6.564032 0.000000 0.000000 0.000000 -6.689381 53.585990 14.333837 -0.000001 32.841465 -0.000002 -34.852031 -27.174381 -18.930501 31.104425 -0.895775 -0.248187 -3.854496 -9.753760 -4.076055 -5.435736 -0.572170 -3.410881 -0.000001 -0.000000 0.000001 0.576089 -2.775871 23.444539 0.460480 -2.492705 20.929346 0.000001 0.000003 -0.000000 0.576092 -2.775870 23.444539 0.460477 -2.492708 20.929346 -0.000001 -0.000001 -0.000000 0.576087 -2.775870 23.444539 0.460481 -2.492704 20.929341 0.000001 0.000001 0.000000 0.576089 -2.775873 23.444539 0.460480 -2.492705 20.929344 0.000001 -0.000003 -0.000000 -70.073274 -1.077557 14.114136 39.549917 5.329142 -6.454114 2.077242 0.414531 7.433089 -0.224749 0.000003 -0.000002 -0.000000 0.000000 0.000000 -24.045555 -19.405626 -21.120999 72.677270 -3.017649 -4.005435 40.073092 0.813017 1.049243 -0.000005 0.000008 0.000000 -0.000001 0.000003 -0.000001 
